<svg width="64" height="64" viewBox="0 0 64 64" fill="none" xmlns="http://www.w3.org/2000/svg">
<g clip-path="url(#clip0_11_3)">
<rect width="64" height="64" rx="8" fill="#E4E3E3"/>
<path d="M32.76 34.6C32.5733 37 31.96 39.1067 30.92 40.92C29.9067 42.7333 28.48 44.1467 26.64 45.16C24.8267 46.1467 22.6 46.64 19.96 46.64C17 46.64 14.48 45.9867 12.4 44.68C10.3467 43.3467 8.78667 41.5733 7.72 39.36C6.65333 37.1467 6.12 34.68 6.12 31.96C6.12 29.96 6.41333 28.08 7 26.32C7.61333 24.5333 8.50667 22.9733 9.68 21.64C10.8533 20.3067 12.2933 19.2667 14 18.52C15.7333 17.7467 17.72 17.36 19.96 17.36C23.72 17.36 26.6533 18.36 28.76 20.36C30.8933 22.3333 32.1733 25 32.6 28.36H26.44C26.3067 27.4533 26.08 26.6533 25.76 25.96C25.44 25.24 25.0133 24.64 24.48 24.16C23.9733 23.6533 23.3467 23.28 22.6 23.04C21.8533 22.7733 20.9733 22.64 19.96 22.64C18.1467 22.64 16.6533 23.0933 15.48 24C14.3333 24.88 13.4933 26.04 12.96 27.48C12.4267 28.8933 12.16 30.3867 12.16 31.96C12.16 33.56 12.4267 35.08 12.96 36.52C13.4933 37.9333 14.3333 39.0933 15.48 40C16.6533 40.9067 18.1467 41.36 19.96 41.36C21.08 41.36 22.04 41.2 22.84 40.88C23.64 40.56 24.3067 40.1067 24.84 39.52C25.4 38.9333 25.8267 38.2267 26.12 37.4C26.4133 36.5733 26.6 35.64 26.68 34.6H32.76ZM40.6181 46L32.1781 18H38.0981L46.1381 46H40.6181ZM48.8181 46H43.2981L51.3381 18H57.2581L48.8181 46Z" fill="url(#paint0_linear_11_3)"/>
</g>
<defs>
<linearGradient id="paint0_linear_11_3" x1="32" y1="6" x2="32" y2="58" gradientUnits="userSpaceOnUse">
<stop stop-color="#1CB5E0"/>
<stop offset="1" stop-color="#000046"/>
</linearGradient>
<clipPath id="clip0_11_3">
<rect width="64" height="64" fill="white"/>
</clipPath>
</defs>
</svg>
